<svg width="932" height="200" viewBox="0 0 932 200" fill="none" xmlns="http://www.w3.org/2000/svg">
<circle cx="100" cy="100" r="100" fill="#1DAE95"/>
<path d="M46 44L64.9914 103.016C65.6566 105.083 67.5797 106.484 69.751 106.484H128.076C129.967 106.484 131.697 107.552 132.545 109.242L152.367 148.758C154.035 152.083 151.618 156 147.898 156H66.1075" stroke="white" stroke-width="6" stroke-linecap="round" stroke-linejoin="round"/>
<path d="M284.656 114.93C283.602 123.953 280.262 130.926 274.637 135.848C269.051 140.73 261.609 143.172 252.312 143.172C242.234 143.172 234.148 139.559 228.055 132.332C222 125.105 218.973 115.438 218.973 103.328V95.125C218.973 87.1953 220.379 80.2227 223.191 74.207C226.043 68.1914 230.066 63.582 235.262 60.3789C240.457 57.1367 246.473 55.5156 253.309 55.5156C262.371 55.5156 269.637 58.0547 275.105 63.1328C280.574 68.1719 283.758 75.1641 284.656 84.1094H273.348C272.371 77.3125 270.242 72.3906 266.961 69.3438C263.719 66.2969 259.168 64.7734 253.309 64.7734C246.121 64.7734 240.477 67.4297 236.375 72.7422C232.312 78.0547 230.281 85.6133 230.281 95.418V103.68C230.281 112.938 232.215 120.301 236.082 125.77C239.949 131.238 245.359 133.973 252.312 133.973C258.562 133.973 263.348 132.566 266.668 129.754C270.027 126.902 272.254 121.961 273.348 114.93H284.656ZM310.145 142H299.305V52H310.145V142ZM366.688 142C366.062 140.75 365.555 138.523 365.164 135.32C360.125 140.555 354.109 143.172 347.117 143.172C340.867 143.172 335.73 141.414 331.707 137.898C327.723 134.344 325.73 129.852 325.73 124.422C325.73 117.82 328.23 112.703 333.23 109.07C338.27 105.398 345.34 103.562 354.441 103.562H364.988V98.582C364.988 94.793 363.855 91.7852 361.59 89.5586C359.324 87.293 355.984 86.1602 351.57 86.1602C347.703 86.1602 344.461 87.1367 341.844 89.0898C339.227 91.043 337.918 93.4062 337.918 96.1797H327.02C327.02 93.0156 328.133 89.9688 330.359 87.0391C332.625 84.0703 335.672 81.7266 339.5 80.0078C343.367 78.2891 347.605 77.4297 352.215 77.4297C359.52 77.4297 365.242 79.2656 369.383 82.9375C373.523 86.5703 375.672 91.5898 375.828 97.9961V127.176C375.828 132.996 376.57 137.625 378.055 141.062V142H366.688ZM348.699 133.738C352.098 133.738 355.32 132.859 358.367 131.102C361.414 129.344 363.621 127.059 364.988 124.246V111.238H356.492C343.211 111.238 336.57 115.125 336.57 122.898C336.57 126.297 337.703 128.953 339.969 130.867C342.234 132.781 345.145 133.738 348.699 133.738ZM429.734 125.184C429.734 122.254 428.621 119.988 426.395 118.387C424.207 116.746 420.359 115.34 414.852 114.168C409.383 112.996 405.027 111.59 401.785 109.949C398.582 108.309 396.199 106.355 394.637 104.09C393.113 101.824 392.352 99.1289 392.352 96.0039C392.352 90.8086 394.539 86.4141 398.914 82.8203C403.328 79.2266 408.953 77.4297 415.789 77.4297C422.977 77.4297 428.797 79.2852 433.25 82.9961C437.742 86.707 439.988 91.4531 439.988 97.2344H429.09C429.09 94.2656 427.82 91.707 425.281 89.5586C422.781 87.4102 419.617 86.3359 415.789 86.3359C411.844 86.3359 408.758 87.1953 406.531 88.9141C404.305 90.6328 403.191 92.8789 403.191 95.6523C403.191 98.2695 404.227 100.242 406.297 101.57C408.367 102.898 412.098 104.168 417.488 105.379C422.918 106.59 427.312 108.035 430.672 109.715C434.031 111.395 436.512 113.426 438.113 115.809C439.754 118.152 440.574 121.023 440.574 124.422C440.574 130.086 438.309 134.637 433.777 138.074C429.246 141.473 423.367 143.172 416.141 143.172C411.062 143.172 406.57 142.273 402.664 140.477C398.758 138.68 395.691 136.18 393.465 132.977C391.277 129.734 390.184 126.238 390.184 122.488H401.023C401.219 126.121 402.664 129.012 405.359 131.16C408.094 133.27 411.688 134.324 416.141 134.324C420.242 134.324 423.523 133.504 425.984 131.863C428.484 130.184 429.734 127.957 429.734 125.184ZM491.609 125.184C491.609 122.254 490.496 119.988 488.27 118.387C486.082 116.746 482.234 115.34 476.727 114.168C471.258 112.996 466.902 111.59 463.66 109.949C460.457 108.309 458.074 106.355 456.512 104.09C454.988 101.824 454.227 99.1289 454.227 96.0039C454.227 90.8086 456.414 86.4141 460.789 82.8203C465.203 79.2266 470.828 77.4297 477.664 77.4297C484.852 77.4297 490.672 79.2852 495.125 82.9961C499.617 86.707 501.863 91.4531 501.863 97.2344H490.965C490.965 94.2656 489.695 91.707 487.156 89.5586C484.656 87.4102 481.492 86.3359 477.664 86.3359C473.719 86.3359 470.633 87.1953 468.406 88.9141C466.18 90.6328 465.066 92.8789 465.066 95.6523C465.066 98.2695 466.102 100.242 468.172 101.57C470.242 102.898 473.973 104.168 479.363 105.379C484.793 106.59 489.188 108.035 492.547 109.715C495.906 111.395 498.387 113.426 499.988 115.809C501.629 118.152 502.449 121.023 502.449 124.422C502.449 130.086 500.184 134.637 495.652 138.074C491.121 141.473 485.242 143.172 478.016 143.172C472.938 143.172 468.445 142.273 464.539 140.477C460.633 138.68 457.566 136.18 455.34 132.977C453.152 129.734 452.059 126.238 452.059 122.488H462.898C463.094 126.121 464.539 129.012 467.234 131.16C469.969 133.27 473.562 134.324 478.016 134.324C482.117 134.324 485.398 133.504 487.859 131.863C490.359 130.184 491.609 127.957 491.609 125.184ZM528.348 142H517.508V78.6016H528.348V142ZM516.629 61.7852C516.629 60.0273 517.156 58.543 518.211 57.332C519.305 56.1211 520.906 55.5156 523.016 55.5156C525.125 55.5156 526.727 56.1211 527.82 57.332C528.914 58.543 529.461 60.0273 529.461 61.7852C529.461 63.543 528.914 65.0078 527.82 66.1797C526.727 67.3516 525.125 67.9375 523.016 67.9375C520.906 67.9375 519.305 67.3516 518.211 66.1797C517.156 65.0078 516.629 63.543 516.629 61.7852ZM571.18 134.324C575.047 134.324 578.426 133.152 581.316 130.809C584.207 128.465 585.809 125.535 586.121 122.02H596.375C596.18 125.652 594.93 129.109 592.625 132.391C590.32 135.672 587.234 138.289 583.367 140.242C579.539 142.195 575.477 143.172 571.18 143.172C562.547 143.172 555.672 140.301 550.555 134.559C545.477 128.777 542.938 120.887 542.938 110.887V109.07C542.938 102.898 544.07 97.4102 546.336 92.6055C548.602 87.8008 551.844 84.0703 556.062 81.4141C560.32 78.7578 565.34 77.4297 571.121 77.4297C578.23 77.4297 584.129 79.5586 588.816 83.8164C593.543 88.0742 596.062 93.6016 596.375 100.398H586.121C585.809 96.2969 584.246 92.9375 581.434 90.3203C578.66 87.6641 575.223 86.3359 571.121 86.3359C565.613 86.3359 561.336 88.3281 558.289 92.3125C555.281 96.2578 553.777 101.98 553.777 109.48V111.531C553.777 118.836 555.281 124.461 558.289 128.406C561.297 132.352 565.594 134.324 571.18 134.324ZM645.477 125.184C645.477 122.254 644.363 119.988 642.137 118.387C639.949 116.746 636.102 115.34 630.594 114.168C625.125 112.996 620.77 111.59 617.527 109.949C614.324 108.309 611.941 106.355 610.379 104.09C608.855 101.824 608.094 99.1289 608.094 96.0039C608.094 90.8086 610.281 86.4141 614.656 82.8203C619.07 79.2266 624.695 77.4297 631.531 77.4297C638.719 77.4297 644.539 79.2852 648.992 82.9961C653.484 86.707 655.73 91.4531 655.73 97.2344H644.832C644.832 94.2656 643.562 91.707 641.023 89.5586C638.523 87.4102 635.359 86.3359 631.531 86.3359C627.586 86.3359 624.5 87.1953 622.273 88.9141C620.047 90.6328 618.934 92.8789 618.934 95.6523C618.934 98.2695 619.969 100.242 622.039 101.57C624.109 102.898 627.84 104.168 633.23 105.379C638.66 106.59 643.055 108.035 646.414 109.715C649.773 111.395 652.254 113.426 653.855 115.809C655.496 118.152 656.316 121.023 656.316 124.422C656.316 130.086 654.051 134.637 649.52 138.074C644.988 141.473 639.109 143.172 631.883 143.172C626.805 143.172 622.312 142.273 618.406 140.477C614.5 138.68 611.434 136.18 609.207 132.977C607.02 129.734 605.926 126.238 605.926 122.488H616.766C616.961 126.121 618.406 129.012 621.102 131.16C623.836 133.27 627.43 134.324 631.883 134.324C635.984 134.324 639.266 133.504 641.727 131.863C644.227 130.184 645.477 127.957 645.477 125.184ZM722.82 105.613C722.82 118.309 720.652 127.742 716.316 133.914C711.98 140.086 705.203 143.172 695.984 143.172C686.883 143.172 680.145 140.164 675.77 134.148C671.395 128.094 669.129 119.07 668.973 107.078V92.6055C668.973 80.0664 671.141 70.75 675.477 64.6562C679.812 58.5625 686.609 55.5156 695.867 55.5156C705.047 55.5156 711.805 58.4648 716.141 64.3633C720.477 70.2227 722.703 79.2852 722.82 91.5508V105.613ZM711.98 90.7891C711.98 81.6094 710.691 74.9297 708.113 70.75C705.535 66.5312 701.453 64.4219 695.867 64.4219C690.32 64.4219 686.277 66.5117 683.738 70.6914C681.199 74.8711 679.891 81.2969 679.812 89.9688V107.312C679.812 116.531 681.141 123.348 683.797 127.762C686.492 132.137 690.555 134.324 695.984 134.324C701.336 134.324 705.301 132.254 707.879 128.113C710.496 123.973 711.863 117.449 711.98 108.543V90.7891ZM772.332 142H761.434V69.7539L739.578 77.7812V67.9375L770.633 56.2773H772.332V142ZM857.586 105.613C857.586 118.309 855.418 127.742 851.082 133.914C846.746 140.086 839.969 143.172 830.75 143.172C821.648 143.172 814.91 140.164 810.535 134.148C806.16 128.094 803.895 119.07 803.738 107.078V92.6055C803.738 80.0664 805.906 70.75 810.242 64.6562C814.578 58.5625 821.375 55.5156 830.633 55.5156C839.812 55.5156 846.57 58.4648 850.906 64.3633C855.242 70.2227 857.469 79.2852 857.586 91.5508V105.613ZM846.746 90.7891C846.746 81.6094 845.457 74.9297 842.879 70.75C840.301 66.5312 836.219 64.4219 830.633 64.4219C825.086 64.4219 821.043 66.5117 818.504 70.6914C815.965 74.8711 814.656 81.2969 814.578 89.9688V107.312C814.578 116.531 815.906 123.348 818.562 127.762C821.258 132.137 825.32 134.324 830.75 134.324C836.102 134.324 840.066 132.254 842.645 128.113C845.262 123.973 846.629 117.449 846.746 108.543V90.7891ZM876.453 99.2266L880.789 56.6875H924.5V66.707H889.988L887.41 89.9688C891.59 87.5078 896.336 86.2773 901.648 86.2773C909.422 86.2773 915.594 88.8555 920.164 94.0117C924.734 99.1289 927.02 106.062 927.02 114.812C927.02 123.602 924.637 130.535 919.871 135.613C915.145 140.652 908.523 143.172 900.008 143.172C892.469 143.172 886.316 141.082 881.551 136.902C876.785 132.723 874.07 126.941 873.406 119.559H883.66C884.324 124.441 886.062 128.133 888.875 130.633C891.688 133.094 895.398 134.324 900.008 134.324C905.047 134.324 908.992 132.605 911.844 129.168C914.734 125.73 916.18 120.984 916.18 114.93C916.18 109.227 914.617 104.656 911.492 101.219C908.406 97.7422 904.285 96.0039 899.129 96.0039C894.402 96.0039 890.691 97.0391 887.996 99.1094L885.125 101.453L876.453 99.2266Z" fill="black"/>
</svg>
